<svg width="38" height="40" viewBox="0 0 38 40" fill="none" xmlns="http://www.w3.org/2000/svg">
<path fill-rule="evenodd" clip-rule="evenodd" d="M22.3594 25C22.125 25 21.8125 24.7656 21.8125 24.4531C21.8125 24.1406 22.0469 23.9062 22.3594 23.9062C26.8906 23.5156 31.3438 22.5781 35.5625 21.0156V8.28125H2.75V21.0156C7.04688 22.6562 11.5 23.5938 16.0312 23.9062C16.4219 23.9062 16.5781 24.1406 16.5781 24.4531C16.5781 24.8438 16.2656 25 15.9531 25C11.1875 24.6875 6.42188 23.6719 1.96875 21.9531C1.73438 21.875 1.65625 21.6406 1.65625 21.4062V7.73438C1.65625 7.42188 1.89062 7.10938 2.20312 7.10938H36.1094C36.5 7.10938 36.7344 7.42188 36.7344 7.73438V21.4062C36.7344 21.6406 36.5781 21.875 36.3438 21.9531C31.9688 23.6719 27.2812 24.6875 22.5156 25C22.4375 25 22.4375 25 22.3594 25Z" fill="#CFA935"/>
<path fill-rule="evenodd" clip-rule="evenodd" d="M33.2188 35.3125H5.09375C4.78125 35.3125 4.46875 35 4.46875 34.6875V22.4219C4.46875 22.1094 4.78125 21.7969 5.09375 21.7969C5.40625 21.7969 5.64062 22.1094 5.64062 22.4219V34.1406H32.6719V22.4219C32.6719 22.1094 32.9844 21.7969 33.2969 21.7969C33.6094 21.7969 33.8438 22.1094 33.8438 22.4219V34.6875C33.7656 35 33.5312 35.3125 33.2188 35.3125Z" fill="#CFA935"/>
<path fill-rule="evenodd" clip-rule="evenodd" d="M12.2812 24.6094C11.9688 24.6094 11.6562 24.375 11.6562 24.0625V7.73438C11.6562 7.42188 11.9688 7.10938 12.2812 7.10938C12.5938 7.10938 12.8281 7.42188 12.8281 7.73438V24.0625C12.8281 24.375 12.5156 24.6094 12.2812 24.6094ZM8.60938 23.9062C8.29688 23.9062 7.98438 23.6719 7.98438 23.3594V7.73438C7.98438 7.42188 8.29688 7.10938 8.60938 7.10938C8.92188 7.10938 9.15625 7.42188 9.15625 7.73438V23.3594C9.15625 23.6719 8.92188 23.9062 8.60938 23.9062Z" fill="#CFA935"/>
<path fill-rule="evenodd" clip-rule="evenodd" d="M26.0312 24.6094C25.7188 24.6094 25.4844 24.375 25.4844 24.0625V7.73438C25.4844 7.42188 25.7188 7.10938 26.0312 7.10938C26.4219 7.10938 26.6562 7.42188 26.6562 7.73438V24.0625C26.6562 24.375 26.4219 24.6094 26.0312 24.6094ZM29.7031 23.9062C29.3906 23.9062 29.1562 23.6719 29.1562 23.3594V7.73438C29.1562 7.42188 29.3906 7.10938 29.7031 7.10938C30.0156 7.10938 30.3281 7.42188 30.3281 7.73438V23.3594C30.3281 23.6719 30.0156 23.9062 29.7031 23.9062Z" fill="#CFA935"/>
<path fill-rule="evenodd" clip-rule="evenodd" d="M21.7344 27.1875H16.7344C16.0312 27.1875 15.4062 26.6406 15.4062 25.9375V23.2031C15.4062 22.5 16.0312 21.875 16.7344 21.875H21.7344C22.4375 21.875 22.9844 22.5 22.9844 23.2031V25.9375C22.9844 26.6406 22.3594 27.1875 21.7344 27.1875ZM16.7344 23.0469C16.6562 23.0469 16.5781 23.125 16.5781 23.2031V25.9375C16.5781 26.0156 16.6562 26.0938 16.7344 26.0938H21.7344C21.8125 26.0938 21.8125 26.0156 21.8125 25.9375V23.2031C21.8125 23.125 21.8125 23.0469 21.7344 23.0469H16.7344Z" fill="#CFA935"/>
<path fill-rule="evenodd" clip-rule="evenodd" d="M25.5625 8.28125C25.25 8.28125 24.9375 8.04688 24.9375 7.73438V5C24.9375 3.59375 23.7656 2.34375 22.3594 2.34375H15.9531C14.4688 2.34375 13.2969 3.51562 13.2969 5V7.73438C13.2969 8.04688 13.0625 8.28125 12.75 8.28125C12.3594 8.28125 12.125 8.04688 12.125 7.73438V5C12.125 2.89062 13.8438 1.25 15.9531 1.25H22.3594C24.3906 1.25 26.1094 2.89062 26.1094 5V7.73438C26.1094 8.04688 25.875 8.28125 25.5625 8.28125ZM23.0625 8.28125C22.75 8.28125 22.4375 8.04688 22.4375 7.73438V5C22.4375 4.92188 22.3594 4.84375 22.3594 4.84375H15.9531C15.875 4.84375 15.7969 4.92188 15.7969 5V7.73438C15.7969 8.04688 15.5625 8.28125 15.25 8.28125C14.8594 8.28125 14.625 8.04688 14.625 7.73438V5C14.625 4.29688 15.25 3.75 15.9531 3.75H22.3594C22.9844 3.75 23.6094 4.29688 23.6094 5V7.73438C23.6094 8.04688 23.375 8.28125 23.0625 8.28125Z" fill="#CFA935"/>
<path fill-rule="evenodd" clip-rule="evenodd" d="M30.4844 29.6094H24.1562C23.8438 29.6094 23.5312 29.2969 23.5312 28.9844C23.5312 28.6719 23.8438 28.4375 24.1562 28.4375H30.4844C30.7969 28.4375 31.0312 28.6719 31.0312 28.9844C31.0312 29.2969 30.7969 29.6094 30.4844 29.6094Z" fill="#CFA935"/>
<path fill-rule="evenodd" clip-rule="evenodd" d="M30.4844 31.875H24.1562C23.8438 31.875 23.5312 31.6406 23.5312 31.25C23.5312 30.9375 23.8438 30.7031 24.1562 30.7031H30.4844C30.7969 30.7031 31.0312 30.9375 31.0312 31.25C31.0312 31.6406 30.7969 31.875 30.4844 31.875Z" fill="#CFA935"/>
<path fill-rule="evenodd" clip-rule="evenodd" d="M14.1562 29.6094H7.82812C7.51562 29.6094 7.28125 29.2969 7.28125 28.9844C7.28125 28.6719 7.51562 28.4375 7.82812 28.4375H14.1562C14.4688 28.4375 14.7031 28.6719 14.7031 28.9844C14.7031 29.2969 14.4688 29.6094 14.1562 29.6094Z" fill="#CFA935"/>
<path fill-rule="evenodd" clip-rule="evenodd" d="M14.1562 31.875H7.82812C7.51562 31.875 7.28125 31.6406 7.28125 31.25C7.28125 30.9375 7.51562 30.7031 7.82812 30.7031H14.1562C14.4688 30.7031 14.7031 30.9375 14.7031 31.25C14.7031 31.6406 14.4688 31.875 14.1562 31.875Z" fill="#CFA935"/>
<path fill-rule="evenodd" clip-rule="evenodd" d="M6.5 6.25C6.1875 6.25 5.95312 6.01562 5.95312 5.70312V1.40625C5.95312 1.09375 6.1875 0.859375 6.5 0.859375C6.89062 0.859375 7.125 1.17188 7.125 1.40625V5.70312C7.125 6.01562 6.89062 6.25 6.5 6.25Z" fill="#CFA935"/>
<path fill-rule="evenodd" clip-rule="evenodd" d="M8.6875 4.14062H4.39062C4.07812 4.14062 3.84375 3.90625 3.84375 3.59375C3.84375 3.20312 4.07812 2.96875 4.39062 2.96875H8.6875C9 2.96875 9.23438 3.20312 9.23438 3.59375C9.23438 3.90625 9 4.14062 8.6875 4.14062Z" fill="#CFA935"/>
<path fill-rule="evenodd" clip-rule="evenodd" d="M31.4219 5.39062C31.1094 5.39062 30.875 5.15625 30.875 4.84375V0.625C30.875 0.234375 31.1094 0 31.4219 0C31.7344 0 32.0469 0.234375 32.0469 0.625V4.84375C32.0469 5.15625 31.7344 5.39062 31.4219 5.39062Z" fill="#CFA935"/>
<path fill-rule="evenodd" clip-rule="evenodd" d="M33.6094 3.28125H29.3125C29 3.28125 28.6875 3.04688 28.6875 2.73438C28.6875 2.42188 29 2.10938 29.3125 2.10938H33.5312C33.8438 2.10938 34.1562 2.42188 34.1562 2.73438C34.1562 3.04688 33.8438 3.28125 33.6094 3.28125Z" fill="#CFA935"/>
<path fill-rule="evenodd" clip-rule="evenodd" d="M2.90625 39.5312C2.59375 39.5312 2.35938 39.2969 2.35938 38.9844V34.6875C2.35938 34.375 2.59375 34.1406 2.90625 34.1406C3.21875 34.1406 3.53125 34.375 3.53125 34.6875V38.9844C3.53125 39.2969 3.21875 39.5312 2.90625 39.5312Z" fill="#CFA935"/>
<path fill-rule="evenodd" clip-rule="evenodd" d="M5.09375 37.4219H0.796875C0.484375 37.4219 0.25 37.1875 0.25 36.875C0.25 36.5625 0.484375 36.25 0.796875 36.25H5.09375C5.40625 36.25 5.64062 36.5625 5.64062 36.875C5.64062 37.1875 5.32812 37.4219 5.09375 37.4219Z" fill="#CFA935"/>
<path fill-rule="evenodd" clip-rule="evenodd" d="M35.0938 40C34.7812 40 34.4688 39.7656 34.4688 39.375V35.1562C34.4688 34.8438 34.7812 34.5312 35.0938 34.5312C35.4062 34.5312 35.6406 34.8438 35.6406 35.1562V39.375C35.6406 39.7656 35.3281 40 35.0938 40Z" fill="#CFA935"/>
<path fill-rule="evenodd" clip-rule="evenodd" d="M37.2031 37.8906H32.9062C32.5938 37.8906 32.3594 37.5781 32.3594 37.2656C32.3594 36.9531 32.5938 36.7188 32.9062 36.7188H37.2031C37.5156 36.7188 37.75 36.9531 37.75 37.2656C37.75 37.5781 37.5156 37.8906 37.2031 37.8906Z" fill="#CFA935"/>
</svg>
