<svg width="18" height="18" viewBox="0 0 18 18" fill="none" xmlns="http://www.w3.org/2000/svg">
<path d="M9.95516 4.29519C9.95516 4.4794 9.95516 5.07984 9.95516 5.93287H12.888L12.57 8.54733H9.95516C9.95516 12.5793 9.95516 17.9824 9.95516 17.9824H6.48432C6.48432 17.9824 6.48432 12.6508 6.48432 8.54733H4.67578V5.93287H6.48432C6.48432 4.89604 6.48432 4.15878 6.48432 3.9535C6.48432 2.97545 6.41064 2.51139 6.82622 1.75349C7.24201 0.995631 8.41482 -0.00611174 10.4433 0.0180054C12.4723 0.0430015 13.3275 0.238189 13.3275 0.238189L12.888 3.02457C12.888 3.02457 11.5924 2.68246 10.9565 2.80438C10.3214 2.92634 9.95516 3.31756 9.95516 4.29519Z" fill="white"/>
</svg>
