<svg width="239" height="48" viewBox="0 0 239 48" fill="none" xmlns="http://www.w3.org/2000/svg">
<g clip-path="url(#clip0_4018_5374)">
<path d="M23.0424 47.8365H22.2194L21.3964 46.0345H17.6517L16.8287 47.8365H16.0469L19.2154 40.915H19.9561L23.1247 47.8365H23.0424ZM19.5035 41.8161L17.9398 45.3382H21.1083L19.5446 41.8161H19.5035Z" fill="white"/>
<path d="M25.8834 40.9561V47.8366H25.1016V40.9561H25.8834Z" fill="white"/>
<path d="M37.1587 48.0002L36.0887 46.8944C35.7595 47.222 35.4303 47.5087 35.06 47.6725C34.6896 47.8773 34.2781 47.9592 33.8255 47.9592C33.3728 47.9592 33.2082 47.9183 32.9613 47.8364C32.7144 47.7545 32.4675 47.6316 32.2618 47.4268C32.056 47.263 31.9326 47.0582 31.8091 46.8125C31.6857 46.5667 31.6445 46.321 31.6445 46.0343C31.6445 45.5838 31.8091 45.1742 32.0972 44.8466C32.3852 44.519 32.7967 44.2323 33.3317 44.0275C33.0848 43.7408 32.9202 43.4951 32.7967 43.2493C32.6733 43.0036 32.6321 42.7579 32.6321 42.4712C32.6321 42.1845 32.6733 42.0207 32.7556 41.8159C32.8379 41.6111 32.9613 41.4473 33.1259 41.2835C33.2905 41.1196 33.4551 41.0377 33.702 40.9149C33.9489 40.792 34.1958 40.792 34.4427 40.792C34.6896 40.792 34.8954 40.8329 35.1011 40.9149C35.3069 40.9968 35.4715 41.1196 35.6361 41.2425C35.8007 41.3654 35.883 41.5292 36.0064 41.734C36.1299 41.9388 36.1299 42.1435 36.1299 42.3483C36.1299 42.7988 35.9653 43.1674 35.6772 43.4541C35.3892 43.7408 34.9777 43.9865 34.4839 44.1504L36.0476 45.7476C36.2122 45.5428 36.3356 45.2971 36.5002 45.0104C36.6648 44.7237 36.7883 44.478 36.9117 44.1913L37.5702 44.478C37.4056 44.8056 37.2821 45.1333 37.1175 45.42C36.9529 45.7067 36.7883 45.9934 36.5825 46.2391L37.7759 47.4678L37.1998 47.9183L37.1587 48.0002ZM33.7432 44.478C33.2905 44.6418 32.9613 44.8466 32.7556 45.1333C32.5498 45.379 32.4264 45.6657 32.4264 45.9524C32.4264 46.2391 32.4264 46.321 32.5498 46.4848C32.6321 46.6486 32.7144 46.7715 32.8379 46.8944C32.9613 47.0172 33.1259 47.0992 33.2905 47.1811C33.4551 47.263 33.6609 47.263 33.8666 47.263C34.1958 47.263 34.4839 47.1811 34.7719 47.0173C35.06 46.8534 35.3069 46.6486 35.5949 46.362L33.7432 44.478ZM35.1011 41.7749C34.9365 41.6111 34.6896 41.4882 34.4016 41.4882C34.1135 41.4882 33.8255 41.5701 33.6609 41.7749C33.4551 41.9797 33.3728 42.1845 33.3728 42.5121C33.3728 42.8398 33.3728 42.7169 33.3728 42.7988C33.3728 42.8807 33.414 43.0036 33.4963 43.0855C33.5374 43.1674 33.6197 43.2903 33.702 43.4132C33.7843 43.536 33.9078 43.6589 34.0312 43.7818C34.4839 43.6179 34.8131 43.4541 35.0188 43.2493C35.2246 43.0446 35.348 42.7988 35.348 42.4712C35.348 42.1435 35.2657 41.9388 35.06 41.7749H35.1011Z" fill="white"/>
<path d="M47.1551 41.0789C47.4431 41.1608 47.6489 41.2836 47.8546 41.4065C48.0604 41.5703 48.1838 41.7342 48.3073 41.9389C48.4307 42.1437 48.4719 42.3894 48.4719 42.6352C48.4719 42.8809 48.4719 43.0447 48.3896 43.2495C48.3073 43.4133 48.225 43.5772 48.1427 43.7C48.0192 43.8229 47.9369 43.9458 47.8135 44.0277C47.69 44.1096 47.5666 44.1915 47.402 44.2324C47.6077 44.2734 47.8135 44.3553 47.9781 44.4782C48.1427 44.601 48.3073 44.683 48.4307 44.8058C48.5542 44.9287 48.6776 45.0925 48.7599 45.2973C48.8422 45.4611 48.8834 45.7068 48.8834 45.9116C48.8834 46.1164 48.8422 46.485 48.7188 46.6898C48.5953 46.8946 48.4307 47.1403 48.225 47.3041C48.0192 47.4679 47.7312 47.5908 47.4431 47.6727C47.1139 47.7546 46.7847 47.7956 46.4144 47.7956H43.3281V40.915H46.2498C46.579 40.915 46.9082 40.956 47.1962 41.0379L47.1551 41.0789ZM47.2374 43.741C47.5254 43.5362 47.69 43.2086 47.69 42.799C47.69 42.3894 47.5666 42.1847 47.2785 41.9799C47.0316 41.7751 46.6201 41.6932 46.1263 41.6932H44.0277V44.0686H46.0852C46.5378 44.0686 46.9493 43.9458 47.2374 43.741ZM47.6077 46.8536C47.8958 46.6488 48.0604 46.3212 48.0604 45.9526C48.0604 45.584 47.8958 45.2563 47.6077 45.0516C47.2785 44.8468 46.8259 44.7239 46.2498 44.7239H44.0688V47.1812H46.3732C46.9082 47.1812 47.3197 47.0584 47.6077 46.8536Z" fill="white"/>
<path d="M51.0664 40.9561H51.8483V47.0994H55.7575V47.8366H51.0664V40.9561Z" fill="white"/>
<path d="M63.9031 45.7477C63.7385 46.1572 63.4916 46.5668 63.1624 46.8944C62.8331 47.2221 62.4628 47.4678 62.0513 47.6726C61.5986 47.8774 61.146 47.9593 60.611 47.9593C60.0761 47.9593 59.6234 47.8774 59.1708 47.6726C58.7181 47.4678 58.3889 47.2221 58.0597 46.8944C57.7305 46.5668 57.5248 46.1982 57.3602 45.7477C57.1956 45.2972 57.1133 44.8467 57.1133 44.3961C57.1133 43.9456 57.1956 43.4542 57.3602 43.0446C57.5248 42.6351 57.7717 42.2255 58.1009 41.8979C58.4301 41.5702 58.8004 41.3245 59.2119 41.1197C59.6646 40.9149 60.1172 40.833 60.6522 40.833C61.1871 40.833 61.6398 40.9149 62.0924 41.1197C62.5039 41.3245 62.8743 41.5702 63.2035 41.8979C63.5327 42.2255 63.7385 42.5941 63.9031 43.0446C64.0677 43.4542 64.15 43.9456 64.15 44.3961C64.15 44.8467 64.0677 45.3381 63.9031 45.7477ZM63.1624 43.2903C63.0389 42.9627 62.8332 42.6351 62.5863 42.3893C62.3394 42.1436 62.0513 41.9388 61.7221 41.775C61.3929 41.6112 61.0225 41.5293 60.611 41.5293C60.1995 41.5293 59.8703 41.6112 59.5 41.734C59.1708 41.8979 58.8827 42.1026 58.6358 42.3484C58.3889 42.5941 58.2243 42.9217 58.0597 43.2494C57.8951 43.577 57.854 43.9456 57.854 44.3552C57.854 44.7648 57.9363 45.1334 58.0597 45.461C58.1832 45.7886 58.3889 46.1163 58.6358 46.362C58.8827 46.6078 59.1708 46.8125 59.5 46.9764C59.8292 47.1402 60.1995 47.2221 60.611 47.2221C61.0225 47.2221 61.3517 47.1402 61.7221 47.0173C62.0924 46.8944 62.3394 46.6487 62.5863 46.403C62.8332 46.1572 62.9977 45.8296 63.1624 45.502C63.2858 45.1743 63.3681 44.8057 63.3681 44.3961C63.3681 43.9866 63.2858 43.618 63.1624 43.2903Z" fill="white"/>
<path d="M71.8058 47.263C71.6001 47.4269 71.3943 47.5497 71.1886 47.6316C70.9828 47.7545 70.7359 47.8364 70.4478 47.8774C70.2009 47.9183 69.9129 47.9593 69.5837 47.9593C69.0899 47.9593 68.6372 47.8774 68.1846 47.6726C67.7731 47.5088 67.4027 47.2221 67.0735 46.9354C66.7443 46.6078 66.5386 46.2392 66.3328 45.8296C66.1682 45.3791 66.0859 44.9286 66.0859 44.4371C66.0859 43.9456 66.1682 43.4951 66.3328 43.0446C66.4974 42.5941 66.7443 42.2255 67.0735 41.8979C67.4027 41.5702 67.7319 41.3245 68.1846 41.1197C68.5961 40.9149 69.0899 40.833 69.5837 40.833C70.0775 40.833 70.2009 40.833 70.4478 40.9149C70.6947 40.9559 70.9416 41.0378 71.1474 41.1197C71.3531 41.2016 71.5589 41.3245 71.7647 41.4473C71.9293 41.5702 72.135 41.734 72.2996 41.8979L71.7647 42.4712C71.4766 42.1845 71.1474 41.9798 70.8182 41.775C70.489 41.6112 70.0775 41.5293 69.5837 41.5293C69.0899 41.5293 68.843 41.6112 68.5138 41.734C68.1846 41.8979 67.8965 42.0617 67.6496 42.3484C67.4027 42.5941 67.2381 42.9217 67.0735 43.2494C66.9089 43.577 66.8678 43.9456 66.8678 44.3552C66.8678 44.7648 66.9501 45.1334 67.0735 45.461C67.197 45.7886 67.4027 46.1163 67.6496 46.362C67.8965 46.6078 68.1846 46.8125 68.5138 46.9764C68.843 47.1402 69.2133 47.1811 69.5837 47.1811C69.9541 47.1811 70.4479 47.0992 70.8182 46.9354C71.1474 46.7716 71.4766 46.5258 71.8058 46.1982L72.2996 46.6897C72.135 46.8535 71.9293 47.0583 71.7235 47.1811L71.8058 47.263Z" fill="white"/>
<path d="M80.2811 47.8366H79.2935L76.6187 44.5192L75.1373 45.9936V47.8366H74.3555V40.9561H75.1373V45.0516L79.0877 40.9561H80.0753L77.1125 43.9458L80.1988 47.8366H80.2811Z" fill="white"/>
<path d="M86.9894 47.263C86.7836 47.4269 86.5779 47.5497 86.3721 47.6316C86.1664 47.7545 85.9195 47.8364 85.6314 47.8774C85.3845 47.9183 85.0965 47.9593 84.7673 47.9593C84.2735 47.9593 83.8208 47.8774 83.3682 47.6726C82.9567 47.5088 82.5863 47.2221 82.2571 46.9354C81.9279 46.6078 81.7222 46.2392 81.5164 45.8296C81.3518 45.3791 81.2695 44.9286 81.2695 44.4371C81.2695 43.9456 81.3518 43.4951 81.5164 43.0446C81.681 42.5941 81.9279 42.2255 82.2571 41.8979C82.5863 41.5702 82.9155 41.3245 83.3682 41.1197C83.7797 40.9149 84.2735 40.833 84.7673 40.833C85.2611 40.833 85.3845 40.833 85.6314 40.9149C85.8783 40.9559 86.1252 41.0378 86.331 41.1197C86.5368 41.2016 86.7425 41.3245 86.9483 41.4473C87.1129 41.5702 87.3186 41.734 87.4832 41.8979L86.9483 42.4712C86.6602 42.1845 86.331 41.9798 86.0018 41.775C85.6726 41.6112 85.2611 41.5293 84.7673 41.5293C84.2735 41.5293 84.0266 41.6112 83.6974 41.734C83.3682 41.8979 83.0801 42.0617 82.8332 42.3484C82.5863 42.5941 82.4217 42.9217 82.2571 43.2494C82.0925 43.577 82.0514 43.9456 82.0514 44.3552C82.0514 44.7648 82.1337 45.1334 82.2571 45.461C82.3806 45.7886 82.5863 46.1163 82.8332 46.362C83.0801 46.6078 83.3682 46.8125 83.6974 46.9764C84.0266 47.1402 84.3969 47.1811 84.7673 47.1811C85.1376 47.1811 85.6314 47.0992 86.0018 46.9354C86.331 46.7716 86.6602 46.5258 86.9894 46.1982L87.4832 46.6897C87.3186 46.8535 87.1129 47.0583 86.9071 47.1811L86.9894 47.263Z" fill="white"/>
<path d="M90.3248 44.7645V47.8771H89.543V40.9966H90.3248V44.0683H94.3164V40.9966H95.0982V47.8771H94.3164V44.7645H90.3248Z" fill="white"/>
<path d="M104.148 47.8365H103.325L102.502 46.0345H98.7572L97.9342 47.8365H97.1523L100.321 40.915H101.062L104.23 47.8365H104.148ZM100.609 41.8161L99.0452 45.3382H102.214L100.65 41.8161H100.609Z" fill="white"/>
<path d="M106.989 40.9561V47.8366H106.207V40.9561H106.989Z" fill="white"/>
<path d="M114.726 40.9561H115.466V47.8366H114.849L110.405 42.1847V47.8366H109.664V40.9561H110.405L114.767 46.4851V40.9561H114.726Z" fill="white"/>
<path d="M127.071 47.263C126.866 47.4269 126.66 47.5497 126.454 47.6316C126.248 47.7545 126.002 47.8364 125.713 47.8774C125.467 47.9183 125.179 47.9593 124.849 47.9593C124.356 47.9593 123.903 47.8774 123.45 47.6726C123.039 47.5088 122.668 47.2221 122.339 46.9354C122.01 46.6078 121.804 46.2392 121.598 45.8296C121.434 45.3791 121.352 44.9286 121.352 44.4371C121.352 43.9456 121.434 43.4951 121.598 43.0446C121.763 42.5941 122.01 42.2255 122.339 41.8979C122.668 41.5702 122.998 41.3245 123.45 41.1197C123.862 40.9149 124.356 40.833 124.849 40.833C125.343 40.833 125.467 40.833 125.713 40.9149C125.96 40.9559 126.207 41.0378 126.413 41.1197C126.619 41.2016 126.825 41.3245 127.03 41.4473C127.195 41.5702 127.401 41.734 127.565 41.8979L127.03 42.4712C126.742 42.1845 126.413 41.9798 126.084 41.775C125.755 41.6112 125.343 41.5293 124.849 41.5293C124.356 41.5293 124.109 41.6112 123.779 41.734C123.45 41.8979 123.162 42.0617 122.915 42.3484C122.668 42.5941 122.504 42.9217 122.339 43.2494C122.175 43.577 122.133 43.9456 122.133 44.3552C122.133 44.7648 122.216 45.1334 122.339 45.461C122.463 45.7886 122.668 46.1163 122.915 46.362C123.162 46.6078 123.45 46.8125 123.779 46.9764C124.109 47.1402 124.479 47.1811 124.849 47.1811C125.22 47.1811 125.713 47.0992 126.084 46.9354C126.413 46.7716 126.742 46.5258 127.071 46.1982L127.565 46.6897C127.401 46.8535 127.195 47.0583 126.989 47.1811L127.071 47.263Z" fill="white"/>
<path d="M134.643 41.6933H130.446V44.0277H134.232V44.724H130.446V47.1404H134.726V47.8366H129.664V40.9561H134.643V41.6523V41.6933Z" fill="white"/>
<path d="M141.637 47.8366L139.62 45.1745H137.645V47.8366H136.863V40.9561H139.826C140.196 40.9561 140.567 40.997 140.855 41.1199C141.143 41.2018 141.431 41.3656 141.637 41.5294C141.842 41.6933 142.007 41.939 142.13 42.1847C142.254 42.4305 142.295 42.7171 142.295 43.0448C142.295 43.3724 142.254 43.5772 142.172 43.8229C142.089 44.0687 141.966 44.2325 141.801 44.3963C141.637 44.5602 141.431 44.683 141.184 44.8059C140.937 44.9288 140.69 45.0107 140.443 45.0516L142.583 47.8776H141.637V47.8366ZM141.102 42.0619C140.773 41.8161 140.361 41.6933 139.785 41.6933H137.645V44.4782H139.785C140.032 44.4782 140.279 44.4782 140.484 44.3963C140.69 44.3144 140.896 44.2325 141.061 44.1096C141.225 43.9868 141.349 43.8229 141.431 43.6591C141.513 43.4953 141.554 43.2905 141.554 43.0448C141.554 42.5943 141.39 42.2666 141.102 42.0209V42.0619Z" fill="white"/>
<path d="M147.235 47.8366H146.453V41.6933H144.148V40.9561H149.58V41.6933H147.276V47.8366H147.235Z" fill="white"/>
<path d="M152.501 40.9561V47.8366H151.719V40.9561H152.501Z" fill="white"/>
<path d="M160.155 41.6933H155.958V44.1506H159.702V44.8468H155.958V47.8366H155.176V40.9561H160.155V41.6933Z" fill="white"/>
<path d="M163.118 40.9561V47.8366H162.336V40.9561H163.118Z" fill="white"/>
<path d="M171.185 47.263C170.979 47.4269 170.773 47.5497 170.567 47.6316C170.362 47.7545 170.115 47.8364 169.827 47.8774C169.58 47.9183 169.292 47.9593 168.963 47.9593C168.469 47.9593 168.016 47.8774 167.564 47.6726C167.152 47.5088 166.782 47.2221 166.452 46.9354C166.123 46.6078 165.917 46.2392 165.712 45.8296C165.547 45.3791 165.465 44.9286 165.465 44.4371C165.465 43.9456 165.547 43.4951 165.712 43.0446C165.876 42.5941 166.123 42.2255 166.452 41.8979C166.782 41.5702 167.111 41.3245 167.564 41.1197C167.975 40.9149 168.469 40.833 168.963 40.833C169.456 40.833 169.58 40.833 169.827 40.9149C170.074 40.9559 170.321 41.0378 170.526 41.1197C170.732 41.2016 170.938 41.3245 171.144 41.4473C171.308 41.5702 171.514 41.734 171.679 41.8979L171.144 42.4712C170.856 42.1845 170.526 41.9798 170.197 41.775C169.868 41.6112 169.456 41.5293 168.963 41.5293C168.469 41.5293 168.222 41.6112 167.893 41.734C167.563 41.8979 167.275 42.0617 167.029 42.3484C166.782 42.5941 166.617 42.9217 166.452 43.2494C166.288 43.577 166.247 43.9456 166.247 44.3552C166.247 44.7648 166.329 45.1334 166.452 45.461C166.576 45.7886 166.782 46.1163 167.029 46.362C167.275 46.6078 167.563 46.8125 167.893 46.9764C168.222 47.1402 168.592 47.1811 168.963 47.1811C169.333 47.1811 169.827 47.0992 170.197 46.9354C170.526 46.7716 170.856 46.5258 171.185 46.1982L171.679 46.6897C171.514 46.8535 171.308 47.0583 171.102 47.1811L171.185 47.263Z" fill="white"/>
<path d="M180.152 47.8365H179.329L178.506 46.0345H174.761L173.938 47.8365H173.156L176.325 40.915H177.066L180.234 47.8365H180.152ZM176.654 41.8161L175.09 45.3382H178.259L176.695 41.8161H176.654Z" fill="white"/>
<path d="M183.899 47.8366H183.117V41.6933H180.812V40.9561H186.244V41.6933H183.94V47.8366H183.899Z" fill="white"/>
<path d="M189.165 40.9561V47.8366H188.383V40.9561H189.165Z" fill="white"/>
<path d="M198.341 45.7477C198.176 46.1572 197.929 46.5668 197.6 46.8944C197.271 47.2221 196.9 47.4678 196.489 47.6726C196.036 47.8774 195.583 47.9593 195.049 47.9593C194.514 47.9593 194.061 47.8774 193.608 47.6726C193.156 47.4678 192.826 47.2221 192.497 46.8944C192.168 46.5668 191.962 46.1982 191.798 45.7477C191.633 45.2972 191.551 44.8467 191.551 44.3961C191.551 43.9456 191.633 43.4542 191.798 43.0446C191.962 42.6351 192.209 42.2255 192.538 41.8979C192.868 41.5702 193.238 41.3245 193.649 41.1197C194.102 40.9149 194.555 40.833 195.09 40.833C195.625 40.833 196.077 40.9149 196.53 41.1197C196.941 41.3245 197.312 41.5702 197.641 41.8979C197.97 42.2255 198.176 42.5941 198.341 43.0446C198.505 43.4542 198.587 43.9456 198.587 44.3961C198.587 44.8467 198.505 45.3381 198.341 45.7477ZM197.559 43.2903C197.435 42.9627 197.23 42.6351 196.983 42.3893C196.736 42.1436 196.448 41.9388 196.118 41.775C195.789 41.6112 195.419 41.5293 195.007 41.5293C194.596 41.5293 194.267 41.6112 193.896 41.734C193.567 41.8979 193.279 42.1026 193.032 42.3484C192.785 42.5941 192.621 42.9217 192.456 43.2494C192.291 43.577 192.25 43.9456 192.25 44.3552C192.25 44.7648 192.333 45.1334 192.456 45.461C192.58 45.7886 192.785 46.1163 193.032 46.362C193.279 46.6078 193.567 46.8125 193.896 46.9764C194.226 47.1402 194.596 47.2221 195.007 47.2221C195.419 47.2221 195.748 47.1402 196.118 47.0173C196.489 46.8944 196.736 46.6487 196.983 46.403C197.23 46.1572 197.394 45.8296 197.559 45.502C197.682 45.1743 197.764 44.8057 197.764 44.3961C197.764 43.9866 197.682 43.618 197.559 43.2903Z" fill="white"/>
<path d="M205.956 40.9561H206.697V47.8366H206.079L201.635 42.1847V47.8366H200.895V40.9561H201.635L205.997 46.4851V40.9561H205.956Z" fill="white"/>
<path d="M209.988 43.1265C210.029 43.2494 210.153 43.3723 210.276 43.4951C210.4 43.618 210.605 43.6999 210.852 43.7818C211.099 43.8637 211.428 43.9456 211.799 44.0275C212.581 44.1914 213.157 44.4371 213.486 44.7238C213.856 45.0105 214.021 45.461 214.021 45.9934C214.021 46.5258 213.98 46.5668 213.856 46.8125C213.733 47.0583 213.568 47.263 213.362 47.4269C213.157 47.5907 212.91 47.7136 212.622 47.8364C212.334 47.9183 212.005 47.9593 211.675 47.9593C211.14 47.9593 210.605 47.8774 210.153 47.6726C209.7 47.4678 209.247 47.2221 208.836 46.8535L209.33 46.2801C209.7 46.6078 210.07 46.8535 210.441 47.0173C210.811 47.1811 211.223 47.263 211.716 47.263C212.21 47.263 212.539 47.1402 212.828 46.9354C213.116 46.7306 213.239 46.4439 213.239 46.0753C213.239 45.7067 213.239 45.7477 213.157 45.6248C213.116 45.502 212.992 45.3791 212.869 45.2562C212.745 45.1334 212.539 45.0514 212.334 44.9695C212.128 44.8876 211.799 44.8057 211.428 44.7238C211.017 44.6419 210.688 44.56 210.4 44.4371C210.112 44.3142 209.865 44.1914 209.659 44.0275C209.453 43.8637 209.33 43.6999 209.247 43.4951C209.165 43.2903 209.124 43.0446 209.124 42.7579C209.124 42.4712 209.165 42.2255 209.289 41.9798C209.412 41.734 209.577 41.5702 209.782 41.3654C209.988 41.2016 210.235 41.0787 210.523 40.9559C210.811 40.833 211.099 40.833 211.428 40.833C211.922 40.833 212.375 40.9149 212.745 41.0378C213.116 41.1607 213.486 41.3654 213.856 41.6521L213.404 42.2665C213.074 42.0207 212.745 41.8159 212.416 41.6931C212.087 41.5702 211.758 41.5293 211.387 41.5293C211.017 41.5293 210.976 41.5293 210.77 41.6112C210.605 41.6521 210.441 41.734 210.317 41.8569C210.194 41.9388 210.07 42.0617 210.029 42.2255C209.988 42.3893 209.906 42.5122 209.906 42.676C209.906 42.8398 209.906 43.0037 209.988 43.1265Z" fill="white"/>
<path d="M216.199 47.8366V46.8127H217.105V47.8366H216.199ZM217.105 40.9561V41.5294L216.858 45.9117H216.446L216.199 41.5294V40.9561H217.105Z" fill="white"/>
<path d="M100.488 30.2662C99.5824 30.9624 98.5948 31.5767 97.5249 32.0682C96.455 32.5597 95.3028 32.9692 94.0272 33.215C92.7515 33.4607 91.3524 33.6245 89.8299 33.6245C87.4432 33.6245 85.2211 33.174 83.2047 32.3139C81.1883 31.4539 79.4189 30.2661 77.9375 28.7508C76.4561 27.2354 75.3039 25.4743 74.4397 23.4266C73.6167 21.3788 73.1641 19.1672 73.1641 16.8327C73.1641 14.4982 73.5756 12.3276 74.3986 10.2798C75.2216 8.23202 76.3738 6.42997 77.8963 4.91462C79.4189 3.39926 81.1472 2.17059 83.2047 1.26956C85.2622 0.368541 87.5255 -0.0410156 90.0356 -0.0410156C92.5458 -0.0410156 92.875 0.0818513 94.1095 0.327585C95.344 0.573319 96.455 0.94192 97.4838 1.39243C98.5125 1.84294 99.459 2.37537 100.323 2.9897C101.187 3.60404 102.01 4.30028 102.792 5.03748L99.0886 9.25591C97.7718 8.02724 96.4139 7.08526 94.9325 6.34806C93.4511 5.61086 91.8051 5.24226 89.9533 5.24226C88.1016 5.24226 86.9494 5.52895 85.6326 6.14328C84.3158 6.75762 83.1635 7.57673 82.2171 8.60062C81.2706 9.62451 80.4888 10.8532 79.995 12.2457C79.46 13.6382 79.2131 15.1535 79.2131 16.7508C79.2131 18.3481 79.46 19.8634 79.995 21.2969C80.5299 22.6894 81.2706 23.959 82.2171 24.9829C83.1635 26.0477 84.3158 26.8668 85.6326 27.4812C86.9494 28.0955 88.3896 28.3822 89.9533 28.3822C91.517 28.3822 93.6568 28.0136 95.0971 27.2354C96.5373 26.4573 97.9364 25.4334 99.3355 24.1638L103.039 27.8907C102.216 28.7917 101.311 29.5699 100.405 30.2662H100.488Z" fill="white"/>
<path d="M134.478 5.73365H116.001V14.0886H132.379V19.249H116.001V27.9316H134.724V33.092H110.281V0.573242H134.478V5.73365Z" fill="white"/>
<path d="M163.734 33.092L155.669 21.7473H148.468V33.092H142.789V0.573242H157.356C159.208 0.573242 160.895 0.818976 162.418 1.31044C163.94 1.80191 165.216 2.4572 166.245 3.35823C167.273 4.25925 168.096 5.3241 168.631 6.59372C169.207 7.86335 169.454 9.29679 169.454 10.8941C169.454 12.4913 169.249 13.4743 168.878 14.5391C168.508 15.604 167.932 16.5459 167.273 17.3651C166.574 18.1842 165.751 18.8804 164.804 19.4538C163.858 20.0272 162.788 20.4777 161.636 20.7644L170.483 33.092H163.693H163.734ZM161.842 7.08519C160.648 6.18416 159.002 5.6927 156.821 5.6927H148.427V16.6688H156.862C158.92 16.6688 160.566 16.1773 161.8 15.1944C163.035 14.2115 163.611 12.8599 163.611 11.1808C163.611 9.50157 163.035 8.02717 161.842 7.08519Z" fill="white"/>
<path d="M191.387 33.092H185.585V5.85652H175.215V0.573242H201.757V5.85652H191.387V33.092Z" fill="white"/>
<path d="M220.646 29.2421C220.193 30.184 219.535 31.0031 218.712 31.6175C217.889 32.2728 216.901 32.7233 215.79 33.0509C214.679 33.3786 213.486 33.5424 212.21 33.5424C210.934 33.5424 208.63 33.2147 206.819 32.6004C205.009 31.9861 203.322 31.0851 201.758 29.8564L204.268 26.0475C205.626 27.0304 206.984 27.8086 208.342 28.3001C209.741 28.7915 211.058 29.0782 212.333 29.0782C213.609 29.0782 214.473 28.8325 215.173 28.341C215.831 27.8496 216.16 27.2352 216.16 26.4161V26.3342C216.16 25.8837 215.996 25.4741 215.708 25.1055C215.42 24.7779 215.008 24.4502 214.473 24.2045C213.979 23.9588 213.362 23.713 212.704 23.5083C212.045 23.3035 211.346 23.0987 210.605 22.8939C209.7 22.6072 208.794 22.3205 207.889 21.9519C206.984 21.6243 206.161 21.1738 205.42 20.6414C204.679 20.1089 204.103 19.4127 203.61 18.6345C203.157 17.8564 202.91 16.8735 202.91 15.6857V15.6038C202.91 14.4571 203.116 13.4332 203.568 12.4912C204.021 11.5492 204.638 10.7711 205.42 10.1158C206.202 9.46048 207.148 8.96902 208.218 8.64137C209.288 8.31373 210.44 8.1499 211.634 8.1499C212.827 8.1499 214.761 8.39564 216.366 8.8871C217.971 9.37857 219.411 10.0748 220.728 10.9349L218.506 14.9485C217.313 14.2523 216.119 13.6789 214.926 13.2694C213.691 12.8598 212.58 12.655 211.552 12.655C210.523 12.655 209.617 12.9008 209 13.3513C208.383 13.8018 208.095 14.4161 208.095 15.1124V15.1943C208.095 15.6448 208.26 16.0134 208.548 16.341C208.877 16.6687 209.288 16.9554 209.782 17.2421C210.276 17.4878 210.893 17.7335 211.552 17.9793C212.21 18.225 212.91 18.4298 213.65 18.6345C214.556 18.9212 215.461 19.2489 216.366 19.6175C217.271 19.9861 218.094 20.4366 218.835 20.969C219.576 21.5014 220.152 22.1567 220.646 22.9349C221.098 23.713 221.345 24.655 221.345 25.7608V25.8427C221.345 27.1533 221.098 28.2591 220.646 29.2421Z" fill="white"/>
<path d="M32.6714 0.941895H26.0462L21.0671 12.5733H12.4667L4.9362 5.07841C5.2654 4.66886 5.43 4.13643 5.43 3.56305C5.43 2.12961 4.2778 0.98285 2.83754 0.98285C1.39729 0.98285 0.245082 2.12961 0.245082 3.5221C0.245082 4.91459 1.39729 6.1023 2.83754 6.1023C4.2778 6.1023 3.49594 6.02039 3.78399 5.93848L11.8906 14.0067H20.4498L19.3387 16.6279H5.22425C4.89505 15.5631 3.90744 14.7439 2.71409 14.7439C1.52074 14.7439 0.121632 15.8907 0.121632 17.3241C0.121632 18.7576 1.27384 19.9044 2.71409 19.9044C4.15435 19.9044 4.89505 19.1262 5.22425 18.0204H18.7215L17.6104 20.6416H11.6025L3.49594 28.7098C3.20789 28.5869 2.87869 28.546 2.54949 28.546C1.10924 28.546 -0.0429688 29.6927 -0.0429688 31.1262C-0.0429688 32.5596 1.10924 33.7064 2.54949 33.7064C3.98974 33.7064 5.14195 32.5596 5.14195 31.1262C5.14195 29.6927 4.9362 30.0204 4.64815 29.6108L12.1786 22.116H16.952L11.9729 33.7474H19.2976L22.3016 26.4573H36.128L39.132 33.7474H46.6624L32.6714 0.941895ZM24.9352 20.0682L29.2971 9.50162L33.659 20.0682H24.9763H24.9352Z" fill="#CFA935"/>
<path d="M53.3281 33.5427V1.02393H60.5294V33.5427H53.3281Z" fill="#CFA935"/>
<path d="M225.952 2.29338V9.13297H224.059V2.29338H221.426V0.573242H228.586V2.33433H225.952V2.29338Z" fill="white"/>
<path d="M237.106 9.17392V3.563L234.678 7.24901H234.637L232.25 3.60396V9.17392H230.398V0.573242H232.456L234.719 4.21829L236.982 0.573242H239.04V9.17392H237.147H237.106Z" fill="white"/>
</g>
<defs>
<clipPath id="clip0_4018_5374">
<rect width="239" height="48" fill="white"/>
</clipPath>
</defs>
</svg>
