<svg width="18" height="18" viewBox="0 0 18 18" fill="none" xmlns="http://www.w3.org/2000/svg">
<g clip-path="url(#clip0_4018_5446)">
<path fill-rule="evenodd" clip-rule="evenodd" d="M4.09389 17.5857V5.99948H0.243262V17.5857H4.09389V17.5857ZM2.16898 4.41815C3.51135 4.41815 4.34754 3.52771 4.34754 2.41589C4.32216 1.27936 3.51135 0.414062 2.19415 0.414062C0.876742 0.414098 0.015625 1.2794 0.015625 2.41593C0.015625 3.52775 0.851359 4.41818 2.14363 4.41818L2.16898 4.41815ZM6.22506 17.5857C6.22506 17.5857 6.27558 7.08658 6.22506 5.99951H10.0763V7.67977H10.0507C10.5571 6.88911 11.4694 5.72744 13.5467 5.72744C16.0809 5.72744 17.9804 7.3834 17.9804 10.9423V17.5858H14.1298V11.3875C14.1298 9.83 13.5727 8.76722 12.1788 8.76722C11.1152 8.76722 10.4813 9.48371 10.2029 10.1763C10.1011 10.4228 10.0763 10.7691 10.0763 11.1153V17.5857H6.22506Z" fill="white"/>
</g>
<defs>
<clipPath id="clip0_4018_5446">
<rect width="18" height="18" fill="white"/>
</clipPath>
</defs>
</svg>
