<svg width="30" height="30" viewBox="0 0 30 30" fill="none" xmlns="http://www.w3.org/2000/svg">
<path fill-rule="evenodd" clip-rule="evenodd" d="M14.9023 29.873C10.9375 29.873 7.24609 28.3691 4.375 25.498C1.50391 22.627 0 18.9355 0 14.9707C0 10.8691 1.50391 7.17773 4.375 4.30664C10.2539 -1.43555 19.6875 -1.43555 25.4297 4.30664C31.3086 10.1855 31.3086 19.7559 25.4297 25.498C22.6953 28.3691 19.0039 29.873 14.9023 29.873ZM14.9023 1.98242C11.6211 1.98242 8.33984 3.21289 5.74219 5.81055C0.683594 10.8691 0.683594 19.0723 5.74219 24.1309C8.20312 26.4551 11.4844 27.8223 14.9023 27.8223C18.457 27.8223 21.7383 26.4551 24.0625 24.1309C29.1211 19.0723 29.1211 10.8691 24.0625 5.81055C21.6016 3.21289 18.3203 1.98242 14.9023 1.98242Z" fill="#CFA935"/>
<path fill-rule="evenodd" clip-rule="evenodd" d="M10.1184 21.2598C9.98165 21.2598 9.84493 21.2598 9.84493 21.2598H9.70822C9.5715 21.2598 9.5715 21.2598 9.43478 21.123C9.29806 21.123 9.16134 21.123 9.16134 21.123C9.02462 20.9863 8.8879 20.9863 8.8879 20.8496H8.75118C8.61447 20.7129 8.61447 20.7129 8.47775 20.7129C8.47775 20.5762 8.34103 20.5762 8.34103 20.5762L8.20431 20.4394H8.06759C7.93087 20.3027 7.93087 20.3027 7.79415 20.166C7.79415 20.0293 7.65744 20.0293 7.65744 19.8926L4.92306 15.2441C4.23947 13.8769 4.64962 12.2363 5.88009 11.5527H6.01681C7.24728 10.7324 8.8879 11.2793 9.70822 12.5098L11.0754 14.9707L21.3293 9.09179C22.5598 8.27148 24.2004 8.68163 25.0207 10.0488C25.7043 11.2793 25.2942 12.9199 24.0637 13.7402L11.4856 20.8496C11.3488 20.9863 11.2121 20.9863 11.2121 21.123C11.0754 21.123 10.9387 21.123 10.9387 21.123C10.802 21.123 10.802 21.2598 10.802 21.2598C10.6652 21.2598 10.5285 21.2598 10.3918 21.2598C10.2551 21.2598 10.2551 21.2598 10.1184 21.2598ZM9.84493 19.209H9.98165H10.1184H10.2551H10.3918C10.3918 19.209 10.3918 19.0723 10.5285 19.0723L22.9699 11.9629C23.3801 11.6894 23.3801 11.2793 23.2434 10.8691C23.1067 10.5957 22.6965 10.459 22.2863 10.7324L11.2121 17.1582C10.6652 17.4316 10.1184 17.2949 9.84493 16.748L7.79415 13.4668C7.65744 13.1934 7.24728 13.0566 6.83712 13.1934C6.56369 13.4668 6.42697 13.8769 6.7004 14.1504L9.43478 18.9355C9.5715 19.0723 9.5715 19.0723 9.5715 19.0723C9.70822 19.0723 9.70822 19.209 9.70822 19.209C9.70822 19.209 9.84493 19.209 9.84493 19.3457C9.84493 19.209 9.84493 19.209 9.84493 19.209Z" fill="#CFA935"/>
</svg>
