<svg width="18" height="18" viewBox="0 0 18 18" fill="none" xmlns="http://www.w3.org/2000/svg">
<g clip-path="url(#clip0_4018_5437)">
<path fill-rule="evenodd" clip-rule="evenodd" d="M7.18959 11.3277V6.27706C8.98258 7.12075 10.3712 7.93577 12.0136 8.81447C10.659 9.56571 8.98258 10.4086 7.18959 11.3277ZM17.1819 3.76515C16.8726 3.35767 16.3455 3.04048 15.7843 2.93546C14.1347 2.62222 3.84389 2.62133 2.19524 2.93546C1.7452 3.01983 1.34445 3.22375 1.0002 3.54059C-0.450326 4.8869 0.00419956 12.1067 0.353832 13.2762C0.500856 13.7824 0.690921 14.1475 0.930285 14.3872C1.23868 14.704 1.66092 14.9222 2.14592 15.02C3.50411 15.3009 10.5012 15.458 15.7556 15.0622C16.2397 14.9778 16.6682 14.7526 17.0062 14.4223C18.3473 13.0814 18.2559 5.45612 17.1819 3.76515Z" fill="white"/>
</g>
<defs>
<clipPath id="clip0_4018_5437">
<rect width="18" height="18" fill="white"/>
</clipPath>
</defs>
</svg>
